<svg xmlns="http://www.w3.org/2000/svg" version="1.1" xmlns:xlink="http://www.w3.org/1999/xlink" xmlns:svgjs="http://svgjs.dev/svgjs" width="1000" height="642" viewBox="0 0 1000 642"><g transform="matrix(1,0,0,1,0.1066666666666265,-0.27438174273862614)"><svg viewBox="0 0 375 241" data-background-color="#ffffff" preserveAspectRatio="xMidYMid meet" height="642" width="1000" xmlns="http://www.w3.org/2000/svg" xmlns:xlink="http://www.w3.org/1999/xlink"><defs></defs><g id="tight-bounds" transform="matrix(1,0,0,1,-0.03976036071776434,0.10341784667969023)"><svg viewBox="0 0 375.07952880859375 240.7935791015625" height="240.7935791015625" width="375.07952880859375"><g><svg></svg></g><g><svg viewBox="0 0 375.07952880859375 240.7935791015625" height="240.7935791015625" width="375.07952880859375"><g transform="matrix(1,0,0,1,-10.220239639282227,-6.4064178466796875)"><path d="M10.22 240.794v-234.388h375.08v234.388h-17.274l0-9.319h7.955v-215.75h-356.442v215.75h1.258l0 9.319z" fill="#336a86" data-fill-palette-color="tertiary"></path><path d="M55.56 245.839h14.849v1.361h-21.656v-1.361h3.071v-20.77h7.599c3.356 0 5.805 0.644 7.345 1.931 1.541 1.288 2.311 3.272 2.312 5.952 0 2.681-0.785 4.644-2.356 5.889-1.575 1.245-3.987 1.868-7.238 1.868v0h-3.926zM59.898 237.322c2.069 0 3.479-0.397 4.23-1.191 0.747-0.789 1.121-1.95 1.121-3.483 0-1.528-0.475-2.609-1.425-3.242-0.95-0.633-2.438-0.95-4.464-0.95v0h-3.8v8.866zM91.179 245.839h3.072v1.361h-6.839l-5.288-7.44h-4.907v7.44h-6.808v-1.361h3.072v-20.77h8.232c3.377 0 5.794 0.57 7.25 1.709 1.456 1.14 2.185 2.966 2.185 5.478v0c0 3.652-1.594 5.952-4.781 6.902v0zM81.871 236.372c2.111 0 3.546-0.327 4.306-0.982 0.76-0.654 1.14-1.706 1.14-3.153 0-1.444-0.39-2.436-1.172-2.976-0.781-0.536-2.174-0.804-4.179-0.805v0h-4.749v7.916zM93.459 245.839h3.071v-20.77h15.546v3.514h-11.81v5.857h10.607v3.325h-10.607v5.921h12.19v2.153h3.071v1.361h-22.068zM142.218 245.839h3.071v1.361h-6.807v-17.287l-7.726 15.356h-2.089l-7.694-15.356v17.287h-6.807v-1.361h3.071v-20.77h5.826l6.68 13.899 6.681-13.899h5.794zM145.289 245.839h3.071v-20.77h3.736v20.77h3.071v1.361h-9.878zM155.167 245.839h3.072v-20.77h15.545v3.514h-11.809v5.857h10.606v3.325h-10.606v5.921h12.189v2.153h3.071v1.361h-22.068zM196.644 245.839h3.071v1.361h-6.839l-5.287-7.44h-4.908v7.44h-6.807v-1.361h3.071v-20.77h8.232c3.377 0 5.794 0.57 7.251 1.709 1.456 1.14 2.185 2.966 2.184 5.478v0c0 3.652-1.594 5.952-4.781 6.902v0zM187.335 236.372c2.111 0 3.546-0.327 4.306-0.982 0.76-0.654 1.14-1.706 1.14-3.153 0-1.444-0.39-2.436-1.171-2.976-0.781-0.536-2.174-0.804-4.18-0.805v0h-4.749v7.916zM198.924 245.839h8.675v1.361h-8.675zM224.506 245.839h3.071v1.361h-19.978v-1.361h3.071v-20.77h3.736v18.585h10.1zM225.519 245.839h3.071v-20.77h15.546v3.514h-11.81v5.857h10.607v3.325h-10.607v5.921h12.19v2.153h3.071v1.361h-22.068zM269.117 245.839h3.673v1.361h-7.061l-2.216-5.034h-11.081l-2.217 5.034h-7.06v-1.361h3.672l9.151-20.77h3.989zM253.951 238.715h8.042l-4.021-9.119zM289.001 245.839h4.686v1.361h-23.968v-1.361h7.662c-1.836-0.929-3.297-2.29-4.382-4.085-1.089-1.794-1.634-3.82-1.634-6.079v0c0-3.229 1.119-5.895 3.356-7.998 2.237-2.098 4.954-3.147 8.15-3.147 3.2 0 5.855 0.929 7.966 2.787v0l-1.995 2.849c-0.865-0.739-1.737-1.252-2.615-1.539-0.874-0.283-1.891-0.424-3.052-0.424v0c-2.259 0-4.143 0.675-5.655 2.026-1.507 1.351-2.261 3.198-2.26 5.541 0 2.343 0.739 4.226 2.216 5.649 1.478 1.427 3.267 2.14 5.37 2.14 2.098 0 3.854-0.454 5.268-1.362v0-6.079h3.736v7.568c-0.781 0.865-1.731 1.583-2.849 2.153zM311.417 245.839h6.586v1.361h-24.316v-1.361h6.553c-2.512-1.752-3.768-4.528-3.767-8.327v0-12.443h3.736v12.284c0 2.026 0.507 3.631 1.52 4.813 1.013 1.182 2.385 1.773 4.116 1.773 1.731 0 3.103-0.591 4.116-1.773 1.013-1.182 1.52-2.786 1.519-4.813v0-12.284h3.736v12.443c0 3.82-1.266 6.596-3.799 8.327zM318.003 245.839h3.071v-20.77h15.546v3.514h-11.81v5.857h10.606v3.325h-10.606v5.921h12.189v2.153h3.072v1.361h-22.068z" fill="#8eaec4" data-fill-palette-color="secondary"></path></g><g transform="matrix(1,0,0,1,29.331764404296877,48.99447126338863)"><svg viewBox="0 0 316.416 142.80463657478523" height="142.80463657478523" width="316.416"><g><svg viewBox="0 0 529.8716418976594 239.14128000000002" height="142.80463657478523" width="316.416"><g><rect width="15.60492577728" height="173.90519999999998" x="184.69876607075076" y="32.61804000000002" fill="#336a86" opacity="1" stroke-width="0" stroke="transparent" fill-opacity="1" class="rect-o-0" data-fill-palette-color="primary" rx="1%" id="o-0" data-palette-color="#336a86"></rect></g><g transform="matrix(1,0,0,1,241.15428288803076,33.050640000000016)"><svg viewBox="0 0 288.71735900962864 173.04" height="173.04" width="288.71735900962864"><g><svg viewBox="0 0 288.71735900962864 173.04" height="173.04" width="288.71735900962864"><g><svg viewBox="0 0 288.71735900962864 173.04" height="173.04" width="288.71735900962864"><g transform="matrix(1,0,0,1,0,0)"><svg width="288.71735900962864" viewBox="2.299999952316284 -35.5 60.650001525878906 36.349998474121094" height="173.04" data-palette-color="#336a86"><g class="undefined-text-0" data-fill-palette-color="primary" id="text-0"><path d="M11.05-34.65Q15.55-34.65 18.78-33.33 22-32 24.03-28.23 26.05-24.45 26.05-17.5L26.05-17.5Q26.05-7.75 22.13-3.88 18.2 0 11.6 0L11.6 0 2.3 0 2.3-34.65 11.05-34.65ZM12.05-29L10.15-29 10.15-5.7 12.05-5.7Q14.05-5.7 15.33-6.73 16.6-7.75 17.3-10.33 18-12.9 18-17.5L18-17.5Q18-22.15 17.28-24.65 16.55-27.15 15.28-28.08 14-29 12.05-29L12.05-29ZM29.75-34.65L37.6-34.65 37.6 0 29.75 0 29.75-34.65ZM52-35.5Q55.25-35.5 57.72-34.4 60.2-33.3 62.25-31.1L62.25-31.1 58.8-27Q55.8-29.75 52.85-29.75L52.85-29.75Q51.15-29.75 50.2-28.75 49.25-27.75 49.25-26.1L49.25-26.1Q49.25-24.5 50.35-23.48 51.45-22.45 54.6-21.1L54.6-21.1Q57.5-19.8 59.3-18.43 61.1-17.05 62.02-15.05 62.95-13.05 62.95-10.1L62.95-10.1Q62.95-6.95 61.52-4.45 60.1-1.95 57.45-0.55 54.8 0.85 51.25 0.85L51.25 0.85Q47.55 0.85 44.85-0.45 42.15-1.75 40-4.05L40-4.05 43.75-8.2Q45.55-6.6 47.17-5.78 48.8-4.95 50.65-4.95L50.65-4.95Q52.7-4.95 53.75-6.18 54.8-7.4 54.8-9.5L54.8-9.5Q54.8-11.4 53.75-12.63 52.7-13.85 49.95-14.95L49.95-14.95Q45.15-16.95 43.15-19.38 41.15-21.8 41.15-25.5L41.15-25.5Q41.15-28.45 42.55-30.73 43.95-33 46.42-34.25 48.9-35.5 52-35.5L52-35.5Z" fill="#336a86" data-fill-palette-color="primary"></path></g></svg></g></svg></g></svg></g></svg></g><g><svg viewBox="0 0 143.84817503075078 239.14128000000002" height="239.14128000000002" width="143.84817503075078"><g><svg xmlns="http://www.w3.org/2000/svg" xmlns:xlink="http://www.w3.org/1999/xlink" version="1.1" x="0" y="0" viewBox="27.394601821899414 9.81300163269043 48.49390411376953 80.61898803710938" enable-background="new 0 0 100 100" xml:space="preserve" height="239.14128000000002" width="143.84817503075078" class="icon-icon-0" data-fill-palette-color="accent" id="icon-0"><path d="M63.015 86.531c-0.006-0.017-0.004-0.032-0.012-0.047-0.103-0.221-1.931-4.09-5.382-6.912C78.653 62.077 75.771 27.39 75.738 27.038c-0.041-0.447-0.416-0.79-0.865-0.79H58.667v-1.822l2.337-7.508c0.146 0.028 0.293 0.045 0.445 0.045 1.288 0 2.336-1.048 2.336-2.337 0-1.288-1.048-2.336-2.336-2.336-1.289 0-2.337 1.048-2.337 2.336 0 0.256 0.052 0.499 0.128 0.731l-3.822 1.216-2.345-2.18c0.561-0.479 0.924-1.181 0.924-1.974 0-1.437-1.169-2.606-2.606-2.606-1.437 0-2.606 1.169-2.606 2.606 0 0.793 0.363 1.495 0.922 1.974l-2.344 2.18-3.714-1.182c0.084-0.242 0.139-0.496 0.139-0.766 0-1.302-1.06-2.361-2.362-2.361-1.302 0-2.361 1.059-2.361 2.361 0 1.303 1.059 2.362 2.361 2.362 0.123 0 0.242-0.018 0.359-0.037l2.331 7.533v1.764H28.411c-0.45 0-0.825 0.342-0.866 0.79-0.032 0.352-2.894 34.763 17.864 52.325-3.617 2.837-5.527 6.896-5.632 7.122-0.006 0.015-0.004 0.03-0.01 0.047-0.032 0.078-0.051 0.16-0.059 0.242-0.001 0.024-0.006 0.048-0.006 0.071-0.001 0.097 0.014 0.192 0.046 0.285 0.008 0.021 0.019 0.04 0.028 0.062 0.019 0.043 0.034 0.086 0.06 0.126l1.737 2.715c0.16 0.25 0.435 0.4 0.732 0.4h18.173c0.296 0 0.572-0.15 0.731-0.4l1.737-2.715c0.025-0.04 0.041-0.084 0.06-0.127 0.009-0.021 0.021-0.04 0.028-0.061 0.031-0.093 0.047-0.188 0.046-0.285 0-0.023-0.005-0.047-0.007-0.071C63.065 86.691 63.046 86.609 63.015 86.531zM61.449 14.027c0.33 0 0.599 0.269 0.599 0.599 0 0.331-0.269 0.6-0.599 0.6s-0.6-0.27-0.6-0.6C60.85 14.296 61.119 14.027 61.449 14.027zM41.424 15.251c-0.344 0-0.625-0.281-0.625-0.625 0-0.344 0.281-0.624 0.625-0.624 0.344 0 0.625 0.28 0.625 0.624C42.049 14.97 41.769 15.251 41.424 15.251zM71.722 27.986h1.74 0.598c0.293 5.239 1.057 35.144-17.897 50.532-0.111-0.071-0.229-0.14-0.343-0.208C68.45 67.027 72.215 50.468 73.228 39.243h-1.736c0 0.001 0 0.002 0 0.003H63.75v-0.722h7.132 0.675 1.733c0.371-4.545 0.293-8.137 0.199-10.027H71.75h-0.105-9.897l-0.788-0.51H71.722zM44.846 73.185C36.205 63.245 33.046 50.53 31.97 40.984h6.192v0.688h-0.147c-0.48 0-0.868 0.388-0.868 0.868C37.148 57.849 41.402 67.707 44.846 73.185zM38.891 43.416c0.048 0.008 0.091 0.028 0.141 0.028H63.75c0.05 0 0.093-0.021 0.141-0.028-0.245 21.816-9.607 32.096-11.169 33.659h-2.027c-1.665-2.139-8.509-12.018-8.509-29.92 0-0.266-0.216-0.482-0.482-0.482-0.266 0-0.482 0.216-0.482 0.482 0 10.793 2.469 18.636 4.541 23.314 0.598 1.35 1.192 2.513 1.748 3.502C44.198 69.294 39.072 59.489 38.891 43.416zM56.93 25.162v1.086H45.852v-1.086H56.93zM46.122 23.425l0.339-1.241 1.948 1.241H46.122zM54.373 23.425l1.948-1.241 0.339 1.241H54.373zM57.759 27.986l0.789 0.51h-2.343-9.629-2.342l0.788-0.51H57.759zM47.416 30.233h7.948c0.205 3.065 1.467 5.229 2.552 6.552H47.622c0.72-0.96 1.473-2.342 1.788-4.182 0.045-0.262-0.131-0.512-0.394-0.556-0.26-0.043-0.511 0.131-0.557 0.394-0.354 2.069-1.341 3.509-2.091 4.344h-1.503C45.95 35.462 47.212 33.299 47.416 30.233zM45.682 38.523c0.014 0.001 0.025 0.009 0.039 0.009 0.01 0 0.02-0.009 0.03-0.009h16.26v0.722H40.77v-0.722H45.682zM62.881 40.984v0.688h-22.98v-0.688H62.881zM64.765 41.672h-0.146v-0.688h6.694c-1.148 10.197-4.674 24.008-14.718 34.191 3.554-4.893 9.039-15.258 9.039-32.635C65.634 42.06 65.245 41.672 64.765 41.672zM52.778 78.812c1.263 0.403 2.392 1.065 3.393 1.838h-9.565c1.001-0.771 2.131-1.434 3.397-1.838H52.778zM61.491 30.233c0.005 0.001 0.012 0.001 0.017 0h10.306c0.039 1.648 0.029 3.891-0.133 6.552h-8.233c-0.101 0-0.193 0.026-0.283 0.057-0.091-0.031-0.184-0.057-0.283-0.057H60.34c-0.696-0.572-2.931-2.694-3.23-6.552H61.491zM51.391 11.551c0.479 0 0.868 0.39 0.868 0.869 0 0.48-0.389 0.869-0.868 0.869s-0.869-0.389-0.869-0.869C50.522 11.94 50.911 11.551 51.391 11.551zM43.688 17.227l3.63 1.155c0.295 0.093 0.625 0.021 0.854-0.192l3.218-2.99 3.217 2.99c0.229 0.213 0.56 0.285 0.854 0.192l3.627-1.154-1.235 3.968-0.166-0.607c-0.074-0.267-0.269-0.482-0.525-0.582-0.256-0.097-0.546-0.071-0.78 0.077l-4.99 3.179L46.4 20.084c-0.234-0.148-0.524-0.177-0.779-0.077-0.258 0.1-0.453 0.315-0.525 0.582l-0.172 0.629L43.688 17.227zM45.672 30.233c-0.3 3.857-2.535 5.979-3.23 6.552h-2.541c-0.012 0-0.022 0.006-0.032 0.007-0.011-0.001-0.021-0.007-0.033-0.007h-8.233c-0.162-2.661-0.171-4.903-0.134-6.552h9.821H45.672zM29.224 27.986h0.336 0.262 1.74 0.136 10.125l-0.788 0.51h-9.337-0.163-1.74c-0.094 1.891-0.171 5.482 0.2 10.027h1.732 7.305v0.722h-7.239l-1.736-0.003c1.007 11.165 4.739 27.608 17.208 38.885-0.121 0.067-0.234 0.142-0.353 0.213C28.189 62.912 28.935 33.207 29.224 27.986zM60.001 88.694H42.779l-0.626-0.978h18.474L60.001 88.694zM43.702 85.98c0.424-0.73 1.063-1.74 1.809-2.594 0.088-0.1 0.077-0.252-0.023-0.34-0.1-0.086-0.252-0.077-0.34 0.024-0.863 0.987-1.582 2.159-2.004 2.909h-1.117c0.557-0.941 1.458-2.286 2.676-3.593h1.122c-0.107 0.035-0.194 0.119-0.194 0.238 0 0.15 0.122 0.271 0.271 0.271 0.15 0 0.271-0.121 0.271-0.271 0-0.119-0.087-0.203-0.194-0.238h12.095c1.219 1.306 2.12 2.651 2.679 3.593H43.702zM41.101 45.628c0-0.333 0.271-0.603 0.603-0.603 0.333 0 0.603 0.27 0.603 0.603 0 0.332-0.27 0.603-0.603 0.603C41.372 46.231 41.101 45.96 41.101 45.628zM48.533 31.167c0-0.333 0.27-0.603 0.603-0.603s0.603 0.269 0.603 0.603c0 0.332-0.27 0.603-0.603 0.603S48.533 31.499 48.533 31.167z" fill="#283132" data-fill-palette-color="accent"></path></svg></g></svg></g></svg></g></svg></g></svg></g></svg><rect width="375.07952880859375" height="240.7935791015625" fill="none" stroke="none" visibility="hidden"></rect></g></svg></g></svg>